<?xml version="1.0" standalone="no"?>
<!DOCTYPE svg PUBLIC "-//W3C//DTD SVG 20010904//EN"
 "http://www.w3.org/TR/2001/REC-SVG-20010904/DTD/svg10.dtd">
<svg version="1.0" xmlns="http://www.w3.org/2000/svg"
 width="512.000000pt" height="512.000000pt" viewBox="0 0 512.000000 512.000000"
 preserveAspectRatio="xMidYMid meet">
<metadata>
Created by potrace 1.14, written by Peter Selinger 2001-2017
</metadata>
<g transform="translate(0.000000,512.000000) scale(0.100000,-0.100000)"
fill="#000000" stroke="none">
<path d="M0 2560 l0 -2560 2560 0 2560 0 0 2560 0 2560 -2560 0 -2560 0 0
-2560z m3377 623 c-3 -1504 -3 -1519 -25 -1629 -61 -320 -185 -565 -391 -773
-301 -306 -715 -417 -1148 -309 l-83 20 0 599 c0 330 2 599 5 599 2 0 30 -7
62 -15 159 -41 264 12 314 160 l24 70 3 1398 3 1397 620 0 620 0 -4 -1517z"/>
</g>
</svg>
